<svg width="60" height="60" viewBox="0 0 60 60" fill="none" xmlns="http://www.w3.org/2000/svg">
<circle cx="30" cy="30" r="30" fill="#D9D9D9"/>
<path d="M35.7375 26.25H33.75V20C33.75 19.3125 33.1875 18.75 32.5 18.75H27.5C26.8125 18.75 26.25 19.3125 26.25 20V26.25H24.2625C23.15 26.25 22.5875 27.6 23.375 28.3875L29.1125 34.125C29.6 34.6125 30.3875 34.6125 30.875 34.125L36.6125 28.3875C37.4 27.6 36.85 26.25 35.7375 26.25ZM21.25 38.75C21.25 39.4375 21.8125 40 22.5 40H37.5C38.1875 40 38.75 39.4375 38.75 38.75C38.75 38.0625 38.1875 37.5 37.5 37.5H22.5C21.8125 37.5 21.25 38.0625 21.25 38.75Z" fill="#070F2B"/>
</svg>
